# xmcd CD database file
#
# Track frame offsets:
#	217
#	14107
#	27930
#	43855
#	56897
#	72150
#	89452
#	100932
#	121877
#	132250
#	151025
#	170575
#	186090
#	199747
#	213015
#	235345
#
# Disc length: 3326 seconds
#
# Revision: 0
# Processed by: cddbd v1.4PL0 Copyright (c) Steve Scherf et al.
# Submitted via: CDex 1.50beta9
#
DISCID=df0cfc10
DTITLE=JOHN KERR - SONG OF HOME
DYEAR=1900
DGENRE=Country
TTITLE0=The Crossroads Of Life
TTITLE1=Beautiful Bindoran
TTITLE2=I Cand't Hold The Years Back
TTITLE3=Memories Of Home
TTITLE4=It Takes A Woman To Build You A Home
TTITLE5=The Old Rustic Bridge
TTITLE6=The Backs Of Mulroy Bay
TTITLE7=Moriarity''Monologue'
TTITLE8=Don't Forget Me, Little Darling
TTITLE9=Theree Leafed Shamrock
TTITLE10=Home To Donegal
TTITLE11=True Love Never Dies
TTITLE12=My Lovely Irish Rose
TTITLE13=Green Fields Of Ireland
TTITLE14=Flight Of Earls
TTITLE15=As Years Roll By
EXTD=
EXTT0=
EXTT1=
EXTT2=
EXTT3=
EXTT4=
EXTT5=
EXTT6=
EXTT7=
EXTT8=
EXTT9=
EXTT10=
EXTT11=
EXTT12=
EXTT13=
EXTT14=
EXTT15=
PLAYORDER=
